<?xml version="1.0" encoding="UTF-8" standalone="no"?>
<!DOCTYPE svg PUBLIC "-//W3C//DTD SVG 1.1//EN" "http://www.w3.org/Graphics/SVG/1.1/DTD/svg11.dtd">
<svg version="1.1" xmlns="http://www.w3.org/2000/svg" xmlns:xlink="http://www.w3.org/1999/xlink" preserveAspectRatio="xMidYMid meet" viewBox="0 0 200 200" width="200" height="200"><defs><path d="M190 100C190 149.67 149.67 190 100 190C50.33 190 10 149.67 10 100C10 50.33 50.33 10 100 10C149.67 10 190 50.33 190 100Z" id="d4QXltAYX"></path><path d="M150 100C150 127.6 127.6 150 100 150C72.4 150 50 127.6 50 100C50 72.4 72.4 50 100 50C127.6 50 150 72.4 150 100Z" id="ci1W3aqmU"></path><path d="M66.35 119.94C66.35 120.63 66.9 121.19 67.59 121.19C68.29 121.19 68.84 120.63 68.84 119.94C68.84 116.7 68.84 90.77 68.84 87.53C68.84 86.85 68.29 86.29 67.59 86.29C66.9 86.29 66.35 86.85 66.35 87.53C66.35 90.77 66.35 116.7 66.35 119.94Z" id="bcOt1PE0V"></path><path d="M66.35 119.94C66.35 120.63 66.9 121.19 67.59 121.19C68.29 121.19 68.84 120.63 68.84 119.94C68.84 116.7 68.84 90.77 68.84 87.53C68.84 86.85 68.29 86.29 67.59 86.29C66.9 86.29 66.35 86.85 66.35 87.53C66.35 90.77 66.35 116.7 66.35 119.94Z" id="dTqB6JF4a"></path><path d="M100 107.23C100 107.23 122.44 103.99 122.44 103.99C122.44 103.56 122.44 101.39 122.44 97.51C117.95 97.51 82.05 97.51 77.56 97.51C77.56 100.96 77.56 103.12 77.56 103.99C82.05 104.63 88.78 107.23 100 107.23Z" id="b8D9Sp2Ch8"></path><path d="M100 107.23C100 107.23 122.44 103.99 122.44 103.99C122.44 103.56 122.44 101.39 122.44 97.51C117.95 97.51 82.05 97.51 77.56 97.51C77.56 100.96 77.56 103.12 77.56 103.99C82.05 104.63 88.78 107.23 100 107.23Z" id="j2HSxUYGr5"></path><path d="M63.85 85.87L100 77.56L136.15 85.87L122.44 97.51L77.56 97.51L63.85 85.87Z" id="d4MMSedBF"></path><path d="M63.85 85.87L100 77.56L136.15 85.87L122.44 97.51L77.56 97.51L63.85 85.87Z" id="aYt2zKUnJ"></path><path d="M100 100.49C100 100.49 77.56 103.74 77.56 103.74C77.56 102.44 77.56 92.07 77.56 90.77C77.56 90.77 88.78 87.53 100 87.53C100 87.53 122.44 90.77 122.44 90.77C122.44 93.37 122.44 101.14 122.44 103.74C117.95 103.09 111.22 100.49 100 100.49Z" id="a1cx08U5Tr"></path><path d="M100 100.49C100 100.49 77.56 103.74 77.56 103.74C77.56 102.44 77.56 92.07 77.56 90.77C77.56 90.77 88.78 87.53 100 87.53C100 87.53 122.44 90.77 122.44 90.77C122.44 93.37 122.44 101.14 122.44 103.74C117.95 103.09 111.22 100.49 100 100.49Z" id="aaGKudVaJ"></path><path d="M77.56 97.25C77.56 97.25 88.78 94.02 100 94.02C100 94.02 122.44 97.25 122.44 97.25C122.44 97.91 122.44 103.09 122.44 103.74C122.44 103.74 111.22 100.49 100 100.49C88.78 100.49 82.06 103.09 77.56 103.74C77.56 103.09 77.56 97.91 77.56 97.25Z" id="b3GPGfaAX"></path><path d="M77.56 97.25C77.56 97.25 88.78 94.02 100 94.02C100 94.02 122.44 97.25 122.44 97.25C122.44 97.91 122.44 103.09 122.44 103.74C122.44 103.74 111.22 100.49 100 100.49C88.78 100.49 82.06 103.09 77.56 103.74C77.56 103.09 77.56 97.91 77.56 97.25Z" id="g73oOoZCvE"></path><path d="M63.85 111.22C63.85 113.28 65.53 114.96 67.59 114.96C69.66 114.96 71.33 113.28 71.33 111.22C71.33 109.15 69.66 107.48 67.59 107.48C65.53 107.48 63.85 109.15 63.85 111.22Z" id="cpTWP9vsA"></path><path d="M63.85 111.22C63.85 113.28 65.53 114.96 67.59 114.96C69.66 114.96 71.33 113.28 71.33 111.22C71.33 109.15 69.66 107.48 67.59 107.48C65.53 107.48 63.85 109.15 63.85 111.22Z" id="a3l2NdhMoQ"></path><path d="M122.44 123.68L122.44 96.26L122.44 76.32L132.41 76.32L132.41 96.26L132.41 123.68L122.44 123.68Z" id="hj0JhUOU0"></path><path d="M122.44 123.68L122.44 96.26L122.44 76.32L132.41 76.32L132.41 96.26L132.41 123.68L122.44 123.68Z" id="d2wsC8PedR"></path><path d="M127.42 80.05C124.67 80.05 122.44 78.38 122.44 76.32C122.44 74.25 124.67 72.58 127.42 72.58C130.18 72.58 132.41 74.25 132.41 76.32C132.41 78.38 130.18 80.05 127.42 80.05Z" id="a1Tz0YwVbt"></path><path d="M127.42 80.05C124.67 80.05 122.44 78.38 122.44 76.32C122.44 74.25 124.67 72.58 127.42 72.58C130.18 72.58 132.41 74.25 132.41 76.32C132.41 78.38 130.18 80.05 127.42 80.05Z" id="a5lRe3sqmr"></path><path d="M127.42 127.42C124.67 127.42 122.44 125.75 122.44 123.68C122.44 121.61 124.67 119.94 127.42 119.94C130.18 119.94 132.41 121.61 132.41 123.68C132.41 125.75 130.18 127.42 127.42 127.42Z" id="e12DpF9LxH"></path><path d="M127.42 127.42C124.67 127.42 122.44 125.75 122.44 123.68C122.44 121.61 124.67 119.94 127.42 119.94C130.18 119.94 132.41 121.61 132.41 123.68C132.41 125.75 130.18 127.42 127.42 127.42Z" id="cDukn8uI1"></path><path d="M132.41 96.26L132.41 101.24L122.44 101.24L122.44 96.26L132.41 96.26Z" id="bEZMRTnB"></path><path d="M132.41 96.26L132.41 101.24L122.44 101.24L122.44 96.26L132.41 96.26Z" id="a2o3h3m8KD"></path></defs><g><g><g><use xlink:href="#d4QXltAYX" opacity="1" fill="#1e88e5" fill-opacity="1"></use><g><use xlink:href="#d4QXltAYX" opacity="1" fill-opacity="0" stroke="#fdc009" stroke-width="20" stroke-opacity="1"></use></g></g><g><use xlink:href="#ci1W3aqmU" opacity="1" fill="#f8f9fa" fill-opacity="1"></use></g><g><g><use xlink:href="#bcOt1PE0V" opacity="1" fill="#4f5659" fill-opacity="1"></use><g><use xlink:href="#bcOt1PE0V" opacity="1" fill-opacity="0" stroke="#000000" stroke-width="1" stroke-opacity="0"></use></g></g><g><use xlink:href="#dTqB6JF4a" opacity="1" fill="#000000" fill-opacity="0"></use><g><use xlink:href="#dTqB6JF4a" opacity="1" fill-opacity="0" stroke="#000000" stroke-width="1" stroke-opacity="0"></use></g></g><g><use xlink:href="#b8D9Sp2Ch8" opacity="1" fill="#414649" fill-opacity="1"></use><g><use xlink:href="#b8D9Sp2Ch8" opacity="1" fill-opacity="0" stroke="#000000" stroke-width="1" stroke-opacity="0"></use></g></g><g><use xlink:href="#j2HSxUYGr5" opacity="1" fill="#000000" fill-opacity="0"></use><g><use xlink:href="#j2HSxUYGr5" opacity="1" fill-opacity="0" stroke="#000000" stroke-width="1" stroke-opacity="0"></use></g></g><g><use xlink:href="#d4MMSedBF" opacity="1" fill="#414649" fill-opacity="1"></use><g><use xlink:href="#d4MMSedBF" opacity="1" fill-opacity="0" stroke="#000000" stroke-width="1" stroke-opacity="0"></use></g></g><g><use xlink:href="#aYt2zKUnJ" opacity="1" fill="#000000" fill-opacity="0"></use><g><use xlink:href="#aYt2zKUnJ" opacity="1" fill-opacity="0" stroke="#000000" stroke-width="1" stroke-opacity="0"></use></g></g><g><use xlink:href="#a1cx08U5Tr" opacity="1" fill="#007bff" fill-opacity="1"></use><g><use xlink:href="#a1cx08U5Tr" opacity="1" fill-opacity="0" stroke="#000000" stroke-width="1" stroke-opacity="0"></use></g></g><g><use xlink:href="#aaGKudVaJ" opacity="1" fill="#000000" fill-opacity="0"></use><g><use xlink:href="#aaGKudVaJ" opacity="1" fill-opacity="0" stroke="#000000" stroke-width="1" stroke-opacity="0"></use></g></g><g><use xlink:href="#b3GPGfaAX" opacity="1" fill="#4f5659" fill-opacity="1"></use><g><use xlink:href="#b3GPGfaAX" opacity="1" fill-opacity="0" stroke="#000000" stroke-width="1" stroke-opacity="0"></use></g></g><g><use xlink:href="#g73oOoZCvE" opacity="1" fill="#000000" fill-opacity="0"></use><g><use xlink:href="#g73oOoZCvE" opacity="1" fill-opacity="0" stroke="#000000" stroke-width="1" stroke-opacity="0"></use></g></g><g><use xlink:href="#cpTWP9vsA" opacity="1" fill="#007bff" fill-opacity="1"></use><g><use xlink:href="#cpTWP9vsA" opacity="1" fill-opacity="0" stroke="#000000" stroke-width="1" stroke-opacity="0"></use></g></g><g><use xlink:href="#a3l2NdhMoQ" opacity="1" fill="#000000" fill-opacity="0"></use><g><use xlink:href="#a3l2NdhMoQ" opacity="1" fill-opacity="0" stroke="#000000" stroke-width="1" stroke-opacity="0"></use></g></g><g><use xlink:href="#hj0JhUOU0" opacity="1" fill="#e9eef2" fill-opacity="1"></use><g><use xlink:href="#hj0JhUOU0" opacity="1" fill-opacity="0" stroke="#000000" stroke-width="1" stroke-opacity="0"></use></g></g><g><use xlink:href="#d2wsC8PedR" opacity="1" fill="#000000" fill-opacity="0"></use><g><use xlink:href="#d2wsC8PedR" opacity="1" fill-opacity="0" stroke="#000000" stroke-width="1" stroke-opacity="0"></use></g></g><g><use xlink:href="#a1Tz0YwVbt" opacity="1" fill="#dadcde" fill-opacity="1"></use><g><use xlink:href="#a1Tz0YwVbt" opacity="1" fill-opacity="0" stroke="#000000" stroke-width="1" stroke-opacity="0"></use></g></g><g><use xlink:href="#a5lRe3sqmr" opacity="1" fill="#000000" fill-opacity="0"></use><g><use xlink:href="#a5lRe3sqmr" opacity="1" fill-opacity="0" stroke="#000000" stroke-width="1" stroke-opacity="0"></use></g></g><g><use xlink:href="#e12DpF9LxH" opacity="1" fill="#dadcde" fill-opacity="1"></use><g><use xlink:href="#e12DpF9LxH" opacity="1" fill-opacity="0" stroke="#000000" stroke-width="1" stroke-opacity="0"></use></g></g><g><use xlink:href="#cDukn8uI1" opacity="1" fill="#000000" fill-opacity="0"></use><g><use xlink:href="#cDukn8uI1" opacity="1" fill-opacity="0" stroke="#000000" stroke-width="1" stroke-opacity="0"></use></g></g><g><use xlink:href="#bEZMRTnB" opacity="1" fill="#fdc009" fill-opacity="1"></use><g><use xlink:href="#bEZMRTnB" opacity="1" fill-opacity="0" stroke="#000000" stroke-width="1" stroke-opacity="0"></use></g></g><g><use xlink:href="#a2o3h3m8KD" opacity="1" fill="#000000" fill-opacity="0"></use><g><use xlink:href="#a2o3h3m8KD" opacity="1" fill-opacity="0" stroke="#000000" stroke-width="1" stroke-opacity="0"></use></g></g></g></g></g></svg>